<svg width="128" height="128" viewBox="0 0 128 128" fill="none" xmlns="http://www.w3.org/2000/svg">
<path d="M66.1201 11V52.6862L68.1015 52.3038C75.8684 50.8044 83.0775 56.755 83.0775 64.6653C83.0775 72.5756 75.8684 78.5262 68.1015 77.0269L66.1201 76.6444V117.271L103.215 64.1354L66.1201 11Z" fill="#909090"/>
<path d="M67.3501 10.1414C66.9751 9.60425 66.2949 9.37257 65.6701 9.56911C65.0452 9.76565 64.6201 10.3449 64.6201 11V52.6862C64.6201 53.1339 64.82 53.5581 65.1653 53.8431C65.5105 54.128 65.9649 54.2439 66.4044 54.1591L68.3858 53.7766C75.2274 52.4559 81.5775 57.6975 81.5775 64.6653C81.5775 71.6332 75.2274 76.8747 68.3858 75.5541L66.4044 75.1716C65.9649 75.0867 65.5105 75.2026 65.1653 75.4876C64.82 75.7725 64.6201 76.1968 64.6201 76.6444V117.271C64.6201 117.926 65.0452 118.505 65.6701 118.702C66.2949 118.898 66.9751 118.667 67.3501 118.129L104.445 64.994C104.805 64.4782 104.805 63.7926 104.445 63.2768L67.3501 10.1414Z" stroke="black" stroke-opacity="0.2" stroke-width="3" stroke-linejoin="round"/>
<path d="M61.8805 11V57.8219L68.9047 56.4659C74.0563 55.4715 78.8379 59.4183 78.8379 64.665C78.8379 69.9117 74.0563 73.8585 68.9047 72.864L61.8805 71.5081V117.27L24.7861 64.1351L61.8805 11Z" fill="#CFCFCF"/>
<path d="M63.3805 11C63.3805 10.3449 62.9554 9.76565 62.3305 9.56911C61.7056 9.37257 61.0255 9.60425 60.6505 10.1414L23.5562 63.2764C23.1961 63.7922 23.1961 64.4779 23.5562 64.9937L60.6505 118.129C61.0255 118.666 61.7056 118.898 62.3305 118.701C62.9554 118.505 63.3805 117.925 63.3805 117.27V73.3253L68.6204 74.3369C74.6974 75.5099 80.3379 70.8541 80.3379 64.665C80.3379 58.4758 74.6974 53.82 68.6204 54.9931L63.3805 56.0046V11Z" stroke="black" stroke-opacity="0.2" stroke-width="3" stroke-linejoin="round"/>
</svg>
