<svg width="128" height="128" viewBox="0 0 128 128" fill="none" xmlns="http://www.w3.org/2000/svg">
<mask id="path-1-outside-1_1298_6161" maskUnits="userSpaceOnUse" x="21.1885" y="5" width="86" height="119" fill="black">
<rect fill="white" x="21.1885" y="5" width="86" height="119"/>
<path fill-rule="evenodd" clip-rule="evenodd" d="M49.5524 12.4868C49.7263 12.2153 49.9636 11.981 50.2526 11.8071C58.7145 6.73096 69.2849 6.73096 77.7468 11.8071C78.5026 12.2603 78.902 13.1313 78.7546 13.9985L74.3493 39.895C74.1852 40.856 73.3522 41.5591 72.3776 41.5591H55.6218C54.6472 41.5591 53.8142 40.856 53.6501 39.895L49.2448 13.9985C49.154 13.4634 49.2712 12.9263 49.5524 12.4868ZM38.5583 20.4771C38.2282 19.6392 38.4987 18.6841 39.2194 18.145L41.2976 16.5864C42.5134 15.6743 44.2624 16.3989 44.4772 17.9028L47.9186 34.9888C47.9616 35.2896 47.7272 35.5591 47.4235 35.5591H45.8405C45.6345 35.5591 45.4499 35.4341 45.3747 35.2427L38.5583 20.4771ZM89.4411 20.4771C89.7712 19.6392 89.5007 18.6841 88.78 18.145L86.7019 16.5864C85.486 15.6743 83.737 16.3989 83.5222 17.9028L80.0808 34.9888C80.0612 35.1235 80.0983 35.2524 80.1726 35.354C80.2634 35.4771 80.4089 35.5591 80.5759 35.5591H82.1589C82.3649 35.5591 82.5495 35.4341 82.6247 35.2427L89.4411 20.4771ZM47.6413 16.4974C47.2195 16.7483 46.8037 17.0088 46.394 17.2787C46.4147 17.3692 46.4326 17.4612 46.4474 17.5549L49.8906 34.6496L49.8987 34.7059C50.1142 36.2146 48.9414 37.5591 47.4236 37.5591H45.8406C44.845 37.5591 43.9395 36.9684 43.5437 36.0479L38.3698 24.8403C36.7796 26.9676 35.4568 29.2894 34.4359 31.7541C32.8277 35.6366 32 39.7977 32 44V50H96V44C96 39.7977 95.1723 35.6365 93.5641 31.7541C92.5432 29.2892 91.2203 26.9673 89.6299 24.84L84.4559 36.0479C84.0602 36.9684 83.1546 37.5591 82.159 37.5591H80.576C79.7314 37.5591 79.0053 37.1402 78.5635 36.5417L78.5579 36.534C78.195 36.0374 78.0022 35.3871 78.1016 34.7019L78.1094 34.6476L81.5522 17.5549C81.5671 17.4612 81.5849 17.369 81.6057 17.2785C81.196 17.0086 80.7801 16.7481 80.3584 16.4972L76.3209 40.2316C75.9929 42.1528 74.3276 43.5591 72.3777 43.5591H55.6219C53.672 43.5591 52.0067 42.1528 51.6787 40.2316L47.6413 16.4974ZM100 52H28V58H100V52ZM33 61.5V60H95V61.5L90.8799 61.8438C84.7438 62.3554 78.6767 63.4466 72.7592 65.0995C67.0368 66.698 60.9632 66.698 55.2408 65.0995C49.3233 63.4466 43.2562 62.3554 37.1201 61.8438L33 61.5ZM91.1291 64.8331L103.977 64.3379L64.0802 120.161L24.1885 64.3443L36.8706 64.8331C42.8179 65.329 48.6982 66.3867 54.4335 67.9887C60.6838 69.7346 67.3157 69.7346 73.5661 67.9887C79.3013 66.3867 85.1818 65.329 91.1291 64.8331Z"/>
</mask>
<path fill-rule="evenodd" clip-rule="evenodd" d="M49.5524 12.4868C49.7263 12.2153 49.9636 11.981 50.2526 11.8071C58.7145 6.73096 69.2849 6.73096 77.7468 11.8071C78.5026 12.2603 78.902 13.1313 78.7546 13.9985L74.3493 39.895C74.1852 40.856 73.3522 41.5591 72.3776 41.5591H55.6218C54.6472 41.5591 53.8142 40.856 53.6501 39.895L49.2448 13.9985C49.154 13.4634 49.2712 12.9263 49.5524 12.4868ZM38.5583 20.4771C38.2282 19.6392 38.4987 18.6841 39.2194 18.145L41.2976 16.5864C42.5134 15.6743 44.2624 16.3989 44.4772 17.9028L47.9186 34.9888C47.9616 35.2896 47.7272 35.5591 47.4235 35.5591H45.8405C45.6345 35.5591 45.4499 35.4341 45.3747 35.2427L38.5583 20.4771ZM89.4411 20.4771C89.7712 19.6392 89.5007 18.6841 88.78 18.145L86.7019 16.5864C85.486 15.6743 83.737 16.3989 83.5222 17.9028L80.0808 34.9888C80.0612 35.1235 80.0983 35.2524 80.1726 35.354C80.2634 35.4771 80.4089 35.5591 80.5759 35.5591H82.1589C82.3649 35.5591 82.5495 35.4341 82.6247 35.2427L89.4411 20.4771ZM47.6413 16.4974C47.2195 16.7483 46.8037 17.0088 46.394 17.2787C46.4147 17.3692 46.4326 17.4612 46.4474 17.5549L49.8906 34.6496L49.8987 34.7059C50.1142 36.2146 48.9414 37.5591 47.4236 37.5591H45.8406C44.845 37.5591 43.9395 36.9684 43.5437 36.0479L38.3698 24.8403C36.7796 26.9676 35.4568 29.2894 34.4359 31.7541C32.8277 35.6366 32 39.7977 32 44V50H96V44C96 39.7977 95.1723 35.6365 93.5641 31.7541C92.5432 29.2892 91.2203 26.9673 89.6299 24.84L84.4559 36.0479C84.0602 36.9684 83.1546 37.5591 82.159 37.5591H80.576C79.7314 37.5591 79.0053 37.1402 78.5635 36.5417L78.5579 36.534C78.195 36.0374 78.0022 35.3871 78.1016 34.7019L78.1094 34.6476L81.5522 17.5549C81.5671 17.4612 81.5849 17.369 81.6057 17.2785C81.196 17.0086 80.7801 16.7481 80.3584 16.4972L76.3209 40.2316C75.9929 42.1528 74.3276 43.5591 72.3777 43.5591H55.6219C53.672 43.5591 52.0067 42.1528 51.6787 40.2316L47.6413 16.4974ZM100 52H28V58H100V52ZM33 61.5V60H95V61.5L90.8799 61.8438C84.7438 62.3554 78.6767 63.4466 72.7592 65.0995C67.0368 66.698 60.9632 66.698 55.2408 65.0995C49.3233 63.4466 43.2562 62.3554 37.1201 61.8438L33 61.5ZM91.1291 64.8331L103.977 64.3379L64.0802 120.161L24.1885 64.3443L36.8706 64.8331C42.8179 65.329 48.6982 66.3867 54.4335 67.9887C60.6838 69.7346 67.3157 69.7346 73.5661 67.9887C79.3013 66.3867 85.1818 65.329 91.1291 64.8331Z" fill="#909090"/>
<path d="M75.8282 40.1466L79.9822 15.727L77.0247 15.2239L72.8707 39.6435L75.8282 40.1466ZM86.869 22.47L81.2629 34.614L83.9867 35.8714L89.5928 23.7274L86.869 22.47ZM50.2526 11.8071L48.7094 9.23452L48.7066 9.23618L50.2526 11.8071ZM49.5524 12.4868L47.026 10.8691L47.0256 10.8697L49.5524 12.4868ZM77.7468 11.8071L76.2035 14.3797L76.2043 14.3802L77.7468 11.8071ZM78.7546 13.9985L81.7121 14.5016L81.7121 14.5015L78.7546 13.9985ZM74.3493 39.895L77.3065 40.3999L77.3068 40.3981L74.3493 39.895ZM53.6501 39.895L50.6926 40.3981L50.6929 40.3999L53.6501 39.895ZM49.2448 13.9985L46.2871 14.5005L46.2873 14.5016L49.2448 13.9985ZM39.2194 18.145L41.0163 20.5474L41.0194 20.545L39.2194 18.145ZM38.5583 20.4771L35.7671 21.5766C35.788 21.6299 35.8105 21.6825 35.8345 21.7345L38.5583 20.4771ZM41.2976 16.5864L43.0976 18.9864L43.0979 18.9862L41.2976 16.5864ZM44.4772 17.9028L41.5074 18.3271C41.5154 18.3834 41.5251 18.4394 41.5363 18.4952L44.4772 17.9028ZM47.9186 34.9888L50.8885 34.5645C50.8805 34.5082 50.8708 34.4522 50.8596 34.3964L47.9186 34.9888ZM45.3747 35.2427L48.167 34.1457C48.1457 34.0916 48.1229 34.0381 48.0985 33.9853L45.3747 35.2427ZM88.78 18.145L86.98 20.545L86.9831 20.5474L88.78 18.145ZM89.4411 20.4771L92.1649 21.7345C92.1889 21.6825 92.2114 21.6299 92.2323 21.5766L89.4411 20.4771ZM86.7019 16.5864L84.9015 18.9862L84.9019 18.9864L86.7019 16.5864ZM83.5222 17.9028L86.4631 18.4952C86.4743 18.4394 86.484 18.3834 86.492 18.3271L83.5222 17.9028ZM80.0808 34.9888L77.1398 34.3964C77.129 34.4502 77.1196 34.5042 77.1118 34.5585L80.0808 34.9888ZM80.1726 35.354L77.7504 37.1241C77.7532 37.1279 77.756 37.1317 77.7588 37.1356L80.1726 35.354ZM82.6247 35.2427L79.9009 33.9853C79.8766 34.0381 79.8537 34.0916 79.8324 34.1457L82.6247 35.2427ZM46.394 17.2787L44.7435 14.7736C43.6981 15.4623 43.1903 16.7277 43.4696 17.948L46.394 17.2787ZM47.6413 16.4974L50.5988 15.9943C50.433 15.0194 49.7974 14.1889 48.8997 13.7741C48.002 13.3593 46.9576 13.4135 46.1077 13.919L47.6413 16.4974ZM46.4474 17.5549L43.4845 18.0252C43.491 18.066 43.4983 18.1067 43.5065 18.1472L46.4474 17.5549ZM49.8906 34.6496L52.8605 34.2254C52.8524 34.1691 52.8428 34.113 52.8316 34.0573L49.8906 34.6496ZM49.8987 34.7059L46.9288 35.1302L46.9288 35.1302L49.8987 34.7059ZM43.5437 36.0479L46.2998 34.863C46.2893 34.8387 46.2786 34.8145 46.2675 34.7905L43.5437 36.0479ZM38.3698 24.8403L41.0936 23.5829C40.6505 22.623 39.7348 21.9672 38.6834 21.8567C37.632 21.7462 36.6 22.1973 35.967 23.0441L38.3698 24.8403ZM34.4359 31.7541L31.6642 30.6061L34.4359 31.7541ZM32 50H29C29 51.6569 30.3431 53 32 53V50ZM96 50V53C97.6569 53 99 51.6569 99 50H96ZM93.5641 31.7541L96.3358 30.6061V30.6061L93.5641 31.7541ZM89.6299 24.84L92.0328 23.0437C91.3997 22.197 90.3678 21.7459 89.3163 21.8564C88.2649 21.9669 87.3493 22.6227 86.9062 23.5826L89.6299 24.84ZM84.4559 36.0479L81.7321 34.7905C81.7211 34.8145 81.7103 34.8387 81.6999 34.863L84.4559 36.0479ZM78.5635 36.5417L76.1496 38.323L76.1498 38.3233L78.5635 36.5417ZM78.5579 36.534L76.1356 38.304L76.1439 38.3153L78.5579 36.534ZM78.1016 34.7019L81.0705 35.1322L81.0705 35.1322L78.1016 34.7019ZM78.1094 34.6476L75.1685 34.0553C75.1576 34.109 75.1483 34.1631 75.1404 34.2174L78.1094 34.6476ZM81.5522 17.5549L84.4931 18.1473C84.5013 18.1068 84.5086 18.0661 84.5151 18.0253L81.5522 17.5549ZM81.6057 17.2785L84.53 17.9479C84.8094 16.7276 84.3016 15.4621 83.2562 14.7733L81.6057 17.2785ZM80.3584 16.4972L81.892 13.9188C81.0421 13.4133 79.9976 13.3591 79.1 13.7739C78.2023 14.1887 77.5667 15.0192 77.4009 15.9941L80.3584 16.4972ZM76.3209 40.2316L79.2781 40.7365L79.2784 40.7347L76.3209 40.2316ZM51.6787 40.2316L48.7212 40.7347L48.7215 40.7365L51.6787 40.2316ZM28 52V49C26.3431 49 25 50.3431 25 52H28ZM100 52H103C103 50.3431 101.657 49 100 49V52ZM28 58H25C25 59.6569 26.3431 61 28 61V58ZM100 58V61C101.657 61 103 59.6569 103 58H100ZM33 60V57C31.3431 57 30 58.3431 30 60H33ZM33 61.5H30C30 63.0602 31.1958 64.3599 32.7506 64.4896L33 61.5ZM95 60H98C98 58.3431 96.6569 57 95 57V60ZM95 61.5L95.2494 64.4896C96.8042 64.3599 98 63.0602 98 61.5H95ZM90.8799 61.8438L91.1292 64.8334L91.1293 64.8334L90.8799 61.8438ZM72.7592 65.0995L73.5663 67.9889L72.7592 65.0995ZM55.2408 65.0995L54.4337 67.9889H54.4337L55.2408 65.0995ZM37.1201 61.8438L36.8707 64.8334L36.8708 64.8334L37.1201 61.8438ZM103.977 64.3379L106.417 66.0823C107.083 65.1509 107.16 63.922 106.617 62.9144C106.074 61.9067 105.005 61.296 103.861 61.3401L103.977 64.3379ZM91.1291 64.8331L91.0135 61.8354C90.9689 61.8371 90.9243 61.8398 90.8798 61.8435L91.1291 64.8331ZM64.0802 120.161L61.6395 121.905C62.2027 122.693 63.1117 123.161 64.0802 123.161C65.0488 123.161 65.9578 122.693 66.521 121.905L64.0802 120.161ZM24.1885 64.3443L24.304 61.3465C23.1602 61.3024 22.0909 61.9131 21.5477 62.9208C21.0045 63.9284 21.0821 65.1573 21.7477 66.0886L24.1885 64.3443ZM36.8706 64.8331L37.1199 61.8435C37.0754 61.8398 37.0308 61.8371 36.9862 61.8354L36.8706 64.8331ZM54.4335 67.9887L53.6264 70.8781L54.4335 67.9887ZM73.5661 67.9887L74.3732 70.8781H74.3732L73.5661 67.9887ZM48.7066 9.23618C48.0168 9.651 47.4458 10.2135 47.026 10.8691L52.0789 14.1045C52.0068 14.2172 51.9103 14.3109 51.7987 14.3781L48.7066 9.23618ZM79.29 9.23452C69.8782 3.58849 58.1212 3.58849 48.7094 9.23452L51.7959 14.3797C59.3079 9.87342 68.6915 9.87342 76.2035 14.3797L79.29 9.23452ZM81.7121 14.5015C82.0665 12.4174 81.1074 10.324 79.2893 9.23406L76.2043 14.3802C75.8978 14.1965 75.7376 13.8453 75.797 13.4956L81.7121 14.5015ZM77.3068 40.3981L81.7121 14.5016L75.7971 13.4954L71.3918 39.3919L77.3068 40.3981ZM72.3776 44.5591C74.8151 44.5591 76.8965 42.8012 77.3065 40.3999L71.3921 39.3901C71.474 38.9107 71.8894 38.5591 72.3776 38.5591V44.5591ZM55.6218 44.5591H72.3776V38.5591H55.6218V44.5591ZM50.6929 40.3999C51.1029 42.8012 53.1843 44.5591 55.6218 44.5591V38.5591C56.11 38.5591 56.5255 38.9107 56.6073 39.3901L50.6929 40.3999ZM46.2873 14.5016L50.6926 40.3981L56.6076 39.3919L52.2023 13.4954L46.2873 14.5016ZM47.0256 10.8697C46.3512 11.9234 46.0687 13.2138 46.2871 14.5005L52.2025 13.4966C52.2393 13.713 52.1912 13.9291 52.0793 14.104L47.0256 10.8697ZM37.4226 15.7427C35.6172 17.093 34.9423 19.483 35.7671 21.5766L41.3495 19.3775C41.5141 19.7953 41.3803 20.2751 41.0163 20.5474L37.4226 15.7427ZM39.4976 14.1864L37.4194 15.745L41.0194 20.545L43.0976 18.9864L39.4976 14.1864ZM47.4471 17.4786C46.9097 13.717 42.537 11.9062 39.4972 14.1867L43.0979 18.9862C42.4898 19.4424 41.6151 19.0808 41.5074 18.3271L47.4471 17.4786ZM50.8596 34.3964L47.4182 17.3105L41.5363 18.4952L44.9777 35.5811L50.8596 34.3964ZM47.4235 38.5591C49.5483 38.5591 51.1903 36.6771 50.8885 34.5645L44.9488 35.413C44.7329 33.902 45.9062 32.5591 47.4235 32.5591V38.5591ZM45.8405 38.5591H47.4235V32.5591H45.8405V38.5591ZM42.5824 36.3396C43.1121 37.6879 44.4105 38.5591 45.8405 38.5591V32.5591C46.8584 32.5591 47.7877 33.1803 48.167 34.1457L42.5824 36.3396ZM35.8345 21.7345L42.6509 36.5001L48.0985 33.9853L41.2821 19.2196L35.8345 21.7345ZM86.9831 20.5474C86.6191 20.2751 86.4853 19.7953 86.6499 19.3775L92.2323 21.5766C93.0571 19.483 92.3822 17.093 90.5769 15.7427L86.9831 20.5474ZM84.9019 18.9864L86.98 20.545L90.58 15.745L88.5019 14.1864L84.9019 18.9864ZM86.492 18.3271C86.3843 19.0808 85.5097 19.4424 84.9015 18.9862L88.5022 14.1867C85.4624 11.9062 81.0897 13.717 80.5523 17.4786L86.492 18.3271ZM83.0217 35.5811L86.4631 18.4952L80.5812 17.3105L77.1398 34.3964L83.0217 35.5811ZM82.5947 33.584C82.9536 34.075 83.1499 34.7282 83.0497 35.4191L77.1118 34.5585C76.9726 35.5189 77.2431 36.4299 77.7504 37.1241L82.5947 33.584ZM80.5759 32.5591C81.4253 32.5591 82.1507 32.9823 82.5863 33.5724L77.7588 37.1356C78.3761 37.9718 79.3925 38.5591 80.5759 38.5591V32.5591ZM82.1589 32.5591H80.5759V38.5591H82.1589V32.5591ZM79.8324 34.1457C80.2117 33.1803 81.141 32.5591 82.1589 32.5591V38.5591C83.5889 38.5591 84.8873 37.6879 85.417 36.3396L79.8324 34.1457ZM86.7173 19.2196L79.9009 33.9853L85.3485 36.5001L92.1649 21.7345L86.7173 19.2196ZM48.0446 19.7838C48.4158 19.5392 48.7927 19.3031 49.1749 19.0758L46.1077 13.919C45.6463 14.1934 45.1915 14.4783 44.7435 14.7736L48.0446 19.7838ZM49.4103 17.0845C49.3849 16.9243 49.3542 16.7658 49.3184 16.6094L43.4696 17.948C43.4752 17.9725 43.4802 17.9982 43.4845 18.0252L49.4103 17.0845ZM52.8316 34.0573L49.3884 16.9625L43.5065 18.1472L46.9497 35.242L52.8316 34.0573ZM52.8685 34.2817L52.8605 34.2254L46.9208 35.0739L46.9288 35.1302L52.8685 34.2817ZM47.4236 40.5591C50.7611 40.5591 53.3431 37.6035 52.8685 34.2817L46.9288 35.1302C46.8853 34.8257 47.1217 34.5591 47.4236 34.5591V40.5591ZM45.8406 40.5591H47.4236V34.5591H45.8406V40.5591ZM40.7877 37.2329C41.6599 39.2615 43.6537 40.5591 45.8406 40.5591V34.5591C46.0364 34.5591 46.2191 34.6752 46.2998 34.863L40.7877 37.2329ZM35.6461 26.0977L40.8199 37.3053L46.2675 34.7905L41.0936 23.5829L35.6461 26.0977ZM37.2075 32.9022C38.1327 30.6685 39.3315 28.5644 40.7727 26.6365L35.967 23.0441C34.2277 25.3708 32.7809 27.9102 31.6642 30.6061L37.2075 32.9022ZM35 44C35 40.1917 35.7501 36.4206 37.2075 32.9022L31.6642 30.6061C29.9053 34.8525 29 39.4037 29 44H35ZM35 50V44H29V50H35ZM96 47H32V53H96V47ZM93 44V50H99V44H93ZM90.7925 32.9022C92.2499 36.4206 93 40.1917 93 44H99C99 39.4037 98.0947 34.8525 96.3358 30.6061L90.7925 32.9022ZM87.2271 26.6362C88.6684 28.5642 89.8672 30.6684 90.7925 32.9022L96.3358 30.6061C95.2191 27.9101 93.7722 25.3705 92.0328 23.0437L87.2271 26.6362ZM87.1797 37.3053L92.3537 26.0974L86.9062 23.5826L81.7321 34.7905L87.1797 37.3053ZM82.159 40.5591C84.346 40.5591 86.3397 39.2615 87.212 37.2329L81.6999 34.863C81.7806 34.6752 81.9633 34.5591 82.159 34.5591V40.5591ZM80.576 40.5591H82.159V34.5591H80.576V40.5591ZM76.1498 38.3233C77.1152 39.6312 78.7105 40.5591 80.576 40.5591V34.5591C80.7523 34.5591 80.8954 34.6493 80.9772 34.7602L76.1498 38.3233ZM76.1439 38.3153L76.1496 38.323L80.9774 34.7604L80.9718 34.7528L76.1439 38.3153ZM75.1326 34.2716C74.9133 35.7848 75.3412 37.2168 76.1356 38.304L80.9801 34.7641C81.0488 34.858 81.0912 34.9895 81.0705 35.1322L75.1326 34.2716ZM75.1404 34.2174L75.1326 34.2717L81.0705 35.1322L81.0784 35.0779L75.1404 34.2174ZM78.6113 16.9626L75.1685 34.0553L81.0504 35.24L84.4931 18.1473L78.6113 16.9626ZM78.6813 16.609C78.6454 16.7657 78.6147 16.9243 78.5893 17.0846L84.5151 18.0253C84.5194 17.9981 84.5244 17.9724 84.53 17.9479L78.6813 16.609ZM78.8248 19.0756C79.207 19.3029 79.5839 19.539 79.9551 19.7836L83.2562 14.7733C82.8081 14.4781 82.3533 14.1932 81.892 13.9188L78.8248 19.0756ZM79.2784 40.7347L83.3159 17.0003L77.4009 15.9941L73.3634 39.7285L79.2784 40.7347ZM72.3777 46.5591C75.7906 46.5591 78.7042 44.0979 79.2781 40.7365L73.3637 39.7267C73.2816 40.2076 72.8646 40.5591 72.3777 40.5591V46.5591ZM55.6219 46.5591H72.3777V40.5591H55.6219V46.5591ZM48.7215 40.7365C49.2954 44.0979 52.2091 46.5591 55.6219 46.5591V40.5591C55.135 40.5591 54.7181 40.2076 54.6359 39.7267L48.7215 40.7365ZM44.6838 17.0005L48.7212 40.7347L54.6362 39.7285L50.5988 15.9943L44.6838 17.0005ZM28 55H100V49H28V55ZM31 58V52H25V58H31ZM100 55H28V61H100V55ZM97 52V58H103V52H97ZM30 60V61.5H36V60H30ZM95 57H33V63H95V57ZM98 61.5V60H92V61.5H98ZM91.1293 64.8334L95.2494 64.4896L94.7506 58.5104L90.6305 58.8541L91.1293 64.8334ZM73.5663 67.9889C79.3015 66.3869 85.1819 65.3292 91.1292 64.8334L90.6306 58.8541C84.3057 59.3815 78.0518 60.5063 71.9521 62.2101L73.5663 67.9889ZM54.4337 67.9889C60.684 69.7348 67.316 69.7348 73.5663 67.9889L71.9521 62.2101C66.7577 63.6611 61.2423 63.6611 56.0479 62.2101L54.4337 67.9889ZM36.8708 64.8334C42.8181 65.3292 48.6985 66.3869 54.4337 67.9889L56.0479 62.2101C49.9482 60.5063 43.6943 59.3815 37.3694 58.8541L36.8708 64.8334ZM32.7506 64.4896L36.8707 64.8334L37.3695 58.8541L33.2494 58.5104L32.7506 64.4896ZM103.861 61.3401L91.0135 61.8354L91.2446 67.8309L104.092 67.3357L103.861 61.3401ZM66.521 121.905L106.417 66.0823L101.536 62.5935L61.6395 118.416L66.521 121.905ZM21.7477 66.0886L61.6395 121.905L66.521 118.416L26.6292 62.5999L21.7477 66.0886ZM36.9862 61.8354L24.304 61.3465L24.0729 67.342L36.7551 67.8309L36.9862 61.8354ZM55.2406 65.0993C49.3231 63.4464 43.256 62.3551 37.1199 61.8435L36.6214 67.8228C42.3798 68.3029 48.0734 69.327 53.6264 70.8781L55.2406 65.0993ZM72.759 65.0993C67.0366 66.6977 60.9629 66.6977 55.2406 65.0993L53.6264 70.8781C60.4047 72.7715 67.5949 72.7715 74.3732 70.8781L72.759 65.0993ZM90.8798 61.8435C84.7437 62.3551 78.6764 63.4464 72.759 65.0993L74.3732 70.8781C79.9262 69.327 85.6199 68.3029 91.3783 67.8228L90.8798 61.8435Z" fill="black" fill-opacity="0.2" mask="url(#path-1-outside-1_1298_6161)"/>
<rect x="28" y="52" width="72" height="6" fill="#909090"/>
<path d="M33 60V61.5L37.1201 61.8438C43.2562 62.3554 49.3233 63.4466 55.2408 65.0995C60.9632 66.698 67.0368 66.698 72.7592 65.0995C78.6767 63.4466 84.7438 62.3554 90.8799 61.8438L95 61.5V60H33Z" fill="#D9D9D9"/>
<path fill-rule="evenodd" clip-rule="evenodd" d="M47.6413 16.4966C47.2195 16.7474 46.8037 17.0079 46.394 17.2778C46.4147 17.3683 46.4326 17.4604 46.4474 17.554L49.8906 34.6488L49.8987 34.7051C50.1142 36.2137 48.9414 37.5582 47.4236 37.5582H45.8406C44.845 37.5582 43.9395 36.9675 43.5437 36.0471L38.3698 24.8394C36.7796 26.9667 35.4568 29.2885 34.4359 31.7533C32.8277 35.6357 32 39.7969 32 43.9992V49.9992H96V43.9992C96 39.7969 95.1723 35.6357 93.5641 31.7533C92.5432 29.2884 91.2203 26.9665 89.6299 24.8391L84.4559 36.0471C84.0602 36.9675 83.1546 37.5582 82.159 37.5582H80.576C79.7314 37.5582 79.0053 37.1394 78.5635 36.5409L78.5579 36.5332C78.195 36.0365 78.0022 35.3863 78.1016 34.7011L78.1094 34.6468L81.5522 17.5541C81.5671 17.4604 81.5849 17.3682 81.6057 17.2776C81.196 17.0077 80.7801 16.7472 80.3584 16.4964L76.3209 40.2308C75.9929 42.1519 74.3276 43.5582 72.3777 43.5582H55.6219C53.672 43.5582 52.0067 42.1519 51.6787 40.2308L47.6413 16.4966Z" fill="#D9D9D9"/>
<path d="M49.5524 12.4868C49.7263 12.2153 49.9636 11.981 50.2526 11.8071C58.7145 6.73096 69.2849 6.73096 77.7468 11.8071C78.5026 12.2603 78.902 13.1313 78.7546 13.9985L74.3493 39.895C74.1852 40.856 73.3522 41.5591 72.3776 41.5591H55.6218C54.6472 41.5591 53.8142 40.856 53.6501 39.895L49.2448 13.9985C49.154 13.4634 49.2712 12.9263 49.5524 12.4868Z" fill="#D9D9D9"/>
<path d="M38.5583 20.4771C38.2282 19.6392 38.4987 18.6841 39.2194 18.145L41.2976 16.5864C42.5134 15.6743 44.2624 16.3989 44.4772 17.9028L47.9186 34.9888C47.9616 35.2896 47.7272 35.5591 47.4235 35.5591H45.8405C45.6345 35.5591 45.4499 35.4341 45.3747 35.2427L38.5583 20.4771Z" fill="#D9D9D9"/>
<path d="M88.78 18.145C89.5007 18.6841 89.7712 19.6392 89.4411 20.4771L82.6247 35.2427C82.5495 35.4341 82.3649 35.5591 82.1589 35.5591H80.5759C80.4089 35.5591 80.2634 35.4771 80.1726 35.354C80.0983 35.2524 80.0612 35.1235 80.0808 34.9888L83.5222 17.9028C83.737 16.3989 85.486 15.6743 86.7019 16.5864L88.78 18.145Z" fill="#D9D9D9"/>
<path d="M38.5583 20.4764C38.2282 19.6385 38.4987 18.6834 39.2194 18.1444L41.2976 16.5858C42.5134 15.6736 44.2624 16.3983 44.4772 17.9022L47.9186 34.9881C47.9616 35.2889 47.7272 35.5584 47.4235 35.5584H45.8405C45.6345 35.5584 45.4499 35.4334 45.3747 35.242L38.5583 20.4764Z" fill="#909090"/>
<path d="M88.78 18.1444C89.5007 18.6834 89.7712 19.6385 89.4411 20.4764L82.6247 35.242C82.5495 35.4334 82.3649 35.5584 82.1589 35.5584H80.5759C80.4089 35.5584 80.2634 35.4764 80.1726 35.3533C80.0983 35.2518 80.0612 35.1229 80.0808 34.9881L83.5222 17.9022C83.737 16.3983 85.486 15.6736 86.7019 16.5858L88.78 18.1444Z" fill="#909090"/>
<path d="M103.977 64.3379L91.1291 64.8331C85.1818 65.329 79.3013 66.3867 73.5661 67.9887C67.3157 69.7346 60.6838 69.7346 54.4335 67.9887C48.6982 66.3867 42.8179 65.329 36.8706 64.8331L24.1885 64.3443L64.0802 120.161L103.977 64.3379Z" fill="#909090"/>
</svg>
