<svg width="128" height="128" viewBox="0 0 128 128" fill="none" xmlns="http://www.w3.org/2000/svg">
<mask id="path-1-outside-1_1296_6116" maskUnits="userSpaceOnUse" x="14" y="8" width="101" height="113" fill="black">
<rect fill="white" x="14" y="8" width="101" height="113"/>
<path fill-rule="evenodd" clip-rule="evenodd" d="M54.8973 11L74.5315 38.4721H55.7666V89.5307H74.5663L54.8973 117.052L17 64.0258L54.8973 11ZM111.552 41.3089H58.6023V48.7098H111.552V41.3089ZM111.552 51.7098H58.6023V86.6944H111.552V51.7098ZM102.552 70.5987L89.7091 76.1904V72.5775L98.6839 69.054L89.7091 65.5815V61.9942L102.552 67.5348V70.5987ZM84.3218 76.5851L87.8963 61.8655C88.0751 61.1676 88.1644 60.6867 88.1644 60.4229C88.1644 60.0654 88.0495 59.7846 87.8197 59.5803C87.5985 59.376 87.275 59.2739 86.8495 59.2739C86.3559 59.2739 86.0239 59.4186 85.8537 59.708C85.6835 59.9973 85.5048 60.5335 85.3175 61.3165L81.7557 76.0362C81.5855 76.8192 81.5004 77.3085 81.5004 77.5043C81.5004 78.2533 81.9344 78.6277 82.8026 78.6277C83.1515 78.6277 83.4153 78.5469 83.5941 78.3852C83.7813 78.232 83.9175 78.015 84.0026 77.7341C84.0962 77.4532 84.2026 77.0702 84.3218 76.5851ZM79.9554 72.5532V76.166L67.1124 70.5999V67.5104L79.9554 61.9443V65.5827L71.0062 69.0296L79.9554 72.5532Z"/>
</mask>
<path fill-rule="evenodd" clip-rule="evenodd" d="M54.8973 11L74.5315 38.4721H55.7666V89.5307H74.5663L54.8973 117.052L17 64.0258L54.8973 11ZM111.552 41.3089H58.6023V48.7098H111.552V41.3089ZM111.552 51.7098H58.6023V86.6944H111.552V51.7098ZM102.552 70.5987L89.7091 76.1904V72.5775L98.6839 69.054L89.7091 65.5815V61.9942L102.552 67.5348V70.5987ZM84.3218 76.5851L87.8963 61.8655C88.0751 61.1676 88.1644 60.6867 88.1644 60.4229C88.1644 60.0654 88.0495 59.7846 87.8197 59.5803C87.5985 59.376 87.275 59.2739 86.8495 59.2739C86.3559 59.2739 86.0239 59.4186 85.8537 59.708C85.6835 59.9973 85.5048 60.5335 85.3175 61.3165L81.7557 76.0362C81.5855 76.8192 81.5004 77.3085 81.5004 77.5043C81.5004 78.2533 81.9344 78.6277 82.8026 78.6277C83.1515 78.6277 83.4153 78.5469 83.5941 78.3852C83.7813 78.232 83.9175 78.015 84.0026 77.7341C84.0962 77.4532 84.2026 77.0702 84.3218 76.5851ZM79.9554 72.5532V76.166L67.1124 70.5999V67.5104L79.9554 61.9443V65.5827L71.0062 69.0296L79.9554 72.5532Z" fill="#D9D9D9"/>
<path d="M74.5315 38.4721V41.4721C75.6554 41.4721 76.685 40.8439 77.1992 39.8445C77.7133 38.8451 77.6257 37.6421 76.9722 36.7277L74.5315 38.4721ZM54.8973 11L57.338 9.25562C56.7748 8.46762 55.8659 8 54.8973 8C53.9287 8 53.0197 8.46762 52.4566 9.25562L54.8973 11ZM55.7666 38.4721V35.4721C54.1097 35.4721 52.7666 36.8152 52.7666 38.4721H55.7666ZM55.7666 89.5307H52.7666C52.7666 91.1876 54.1097 92.5307 55.7666 92.5307V89.5307ZM74.5663 89.5307L77.007 91.2751C77.6605 90.3607 77.7481 89.1578 77.234 88.1583C76.7198 87.1589 75.6902 86.5307 74.5663 86.5307V89.5307ZM54.8973 117.052L52.4566 118.796C53.0197 119.584 53.9287 120.052 54.8973 120.052C55.8659 120.052 56.7748 119.584 57.338 118.796L54.8973 117.052ZM17 64.0258L14.5593 62.2814C13.8136 63.3248 13.8136 64.7268 14.5593 65.7701L17 64.0258ZM58.6023 41.3089V38.3089C56.9455 38.3089 55.6023 39.6521 55.6023 41.3089H58.6023ZM111.552 41.3089H114.552C114.552 39.6521 113.209 38.3089 111.552 38.3089V41.3089ZM58.6023 48.7098H55.6023C55.6023 50.3666 56.9455 51.7098 58.6023 51.7098V48.7098ZM111.552 48.7098V51.7098C113.209 51.7098 114.552 50.3666 114.552 48.7098H111.552ZM58.6023 51.7098V48.7098C56.9455 48.7098 55.6023 50.0529 55.6023 51.7098H58.6023ZM111.552 51.7098H114.552C114.552 50.0529 113.209 48.7098 111.552 48.7098V51.7098ZM58.6023 86.6944H55.6023C55.6023 88.3512 56.9455 89.6944 58.6023 89.6944V86.6944ZM111.552 86.6944V89.6944C113.209 89.6944 114.552 88.3512 114.552 86.6944H111.552ZM89.7091 76.1904H86.7091C86.7091 77.2019 87.2188 78.1452 88.0649 78.6996C88.9109 79.254 89.9793 79.3447 90.9067 78.941L89.7091 76.1904ZM102.552 70.5987L103.75 73.3493C104.844 72.8727 105.552 71.7925 105.552 70.5987H102.552ZM89.7091 72.5775L88.6128 69.785C87.4644 70.2358 86.7091 71.3438 86.7091 72.5775H89.7091ZM98.6839 69.054L99.7802 71.8465C100.931 71.3946 101.687 70.283 101.684 69.0466C101.681 67.8102 100.92 66.7022 99.7664 66.2561L98.6839 69.054ZM89.7091 65.5815H86.7091C86.7091 66.8206 87.471 67.9323 88.6266 68.3794L89.7091 65.5815ZM89.7091 61.9942L90.8975 59.2396C89.9704 58.8396 88.9043 58.9328 88.0607 59.4877C87.2171 60.0425 86.7091 60.9845 86.7091 61.9942H89.7091ZM102.552 67.5348H105.552C105.552 66.3373 104.84 65.2545 103.74 64.7802L102.552 67.5348ZM87.8963 61.8655L84.9901 61.1212C84.987 61.1333 84.984 61.1454 84.9811 61.1575L87.8963 61.8655ZM84.3218 76.5851L87.2352 77.3007L87.237 77.2931L84.3218 76.5851ZM87.8197 59.5803L85.7849 61.7847C85.7987 61.7974 85.8126 61.81 85.8266 61.8225L87.8197 59.5803ZM85.3175 61.3165L88.2334 62.0221L88.2353 62.0143L85.3175 61.3165ZM81.7557 76.0362L78.8399 75.3306C78.8344 75.3533 78.8291 75.3761 78.8242 75.3989L81.7557 76.0362ZM83.5941 78.3852L81.6944 76.0633C81.6559 76.0948 81.6182 76.1272 81.5813 76.1606L83.5941 78.3852ZM84.0026 77.7341L81.1565 76.7854C81.1479 76.8115 81.1395 76.8377 81.1315 76.864L84.0026 77.7341ZM79.9554 76.166L78.7624 78.9186C79.6897 79.3205 80.757 79.2285 81.6018 78.6739C82.4466 78.1193 82.9554 77.1766 82.9554 76.166H79.9554ZM79.9554 72.5532H82.9554C82.9554 71.3205 82.2014 70.2133 81.0545 69.7617L79.9554 72.5532ZM67.1124 70.5999H64.1124C64.1124 71.7956 64.8224 72.877 65.9195 73.3525L67.1124 70.5999ZM67.1124 67.5104L65.9195 64.7578C64.8224 65.2333 64.1124 66.3148 64.1124 67.5104H67.1124ZM79.9554 61.9443H82.9554C82.9554 60.9337 82.4466 59.991 81.6018 59.4364C80.757 58.8818 79.6897 58.7898 78.7624 59.1917L79.9554 61.9443ZM79.9554 65.5827L81.0337 68.3822C82.1916 67.9363 82.9554 66.8235 82.9554 65.5827H79.9554ZM71.0062 69.0296L69.9279 66.2301C68.7738 66.6746 68.0108 67.7818 68.0062 69.0185C68.0016 70.2552 68.7564 71.368 69.9071 71.8211L71.0062 69.0296ZM76.9722 36.7277L57.338 9.25562L52.4566 12.7444L72.0907 40.2165L76.9722 36.7277ZM55.7666 41.4721H74.5315V35.4721H55.7666V41.4721ZM58.7666 89.5307V38.4721H52.7666V89.5307H58.7666ZM74.5663 86.5307H55.7666V92.5307H74.5663V86.5307ZM57.338 118.796L77.007 91.2751L72.1256 87.7863L52.4566 115.307L57.338 118.796ZM14.5593 65.7701L52.4566 118.796L57.338 115.307L19.4407 62.2814L14.5593 65.7701ZM52.4566 9.25562L14.5593 62.2814L19.4407 65.7701L57.338 12.7444L52.4566 9.25562ZM58.6023 44.3089H111.552V38.3089H58.6023V44.3089ZM61.6023 48.7098V41.3089H55.6023V48.7098H61.6023ZM111.552 45.7098H58.6023V51.7098H111.552V45.7098ZM108.552 41.3089V48.7098H114.552V41.3089H108.552ZM58.6023 54.7098H111.552V48.7098H58.6023V54.7098ZM61.6023 86.6944V51.7098H55.6023V86.6944H61.6023ZM111.552 83.6944H58.6023V89.6944H111.552V83.6944ZM108.552 51.7098V86.6944H114.552V51.7098H108.552ZM90.9067 78.941L103.75 73.3493L101.355 67.8481L88.5116 73.4398L90.9067 78.941ZM86.7091 72.5775V76.1904H92.7091V72.5775H86.7091ZM97.5876 66.2615L88.6128 69.785L90.8055 75.37L99.7802 71.8465L97.5876 66.2615ZM88.6266 68.3794L97.6014 71.8518L99.7664 66.2561L90.7917 62.7836L88.6266 68.3794ZM86.7091 61.9942V65.5815H92.7091V61.9942H86.7091ZM103.74 64.7802L90.8975 59.2396L88.5208 64.7488L101.364 70.2894L103.74 64.7802ZM105.552 70.5987V67.5348H99.5521V70.5987H105.552ZM84.9811 61.1575L81.4065 75.8772L87.237 77.2931L90.8116 62.5735L84.9811 61.1575ZM85.1644 60.4229C85.1644 60.3313 85.1714 60.2846 85.169 60.304C85.1674 60.3175 85.1618 60.3585 85.1479 60.4333C85.1197 60.5851 85.0698 60.81 84.9901 61.1212L90.8026 62.6098C90.9717 61.9494 91.1644 61.1185 91.1644 60.4229H85.1644ZM85.8266 61.8225C85.604 61.6246 85.4199 61.3691 85.3016 61.08C85.1878 60.8018 85.1644 60.5655 85.1644 60.4229H91.1644C91.1644 59.3621 90.7895 58.2063 89.8129 57.3381L85.8266 61.8225ZM86.8495 62.2739C86.8322 62.2739 86.3105 62.2699 85.7849 61.7847L89.8546 57.3759C88.8864 56.4822 87.7179 56.2739 86.8495 56.2739V62.2739ZM88.4395 61.229C88.1779 61.6738 87.7954 61.9728 87.4291 62.1325C87.1061 62.2733 86.8743 62.2739 86.8495 62.2739V56.2739C85.839 56.2739 84.2061 56.5921 83.2679 58.1869L88.4395 61.229ZM88.2353 62.0143C88.3164 61.6751 88.385 61.4349 88.4381 61.2758C88.4641 61.1978 88.4812 61.1548 88.4877 61.1393C88.4959 61.1201 88.4817 61.1574 88.4395 61.229L83.2679 58.1869C82.8467 58.9029 82.5866 59.8378 82.3998 60.6188L88.2353 62.0143ZM84.6716 76.7417L88.2334 62.0221L82.4017 60.611L78.8399 75.3306L84.6716 76.7417ZM84.5004 77.5043C84.5004 77.638 84.4884 77.7126 84.4935 77.6723C84.4961 77.6507 84.5036 77.5977 84.5199 77.5045C84.5523 77.3181 84.6064 77.0455 84.6872 76.6734L78.8242 75.3989C78.7348 75.8098 78.6613 76.1734 78.6086 76.4764C78.5679 76.7104 78.5004 77.1163 78.5004 77.5043H84.5004ZM82.8026 75.6277C82.7313 75.6277 83.2379 75.6029 83.7856 76.0754C84.418 76.621 84.5004 77.2913 84.5004 77.5043H78.5004C78.5004 78.4662 78.7998 79.6983 79.8662 80.6184C80.848 81.4653 82.0057 81.6277 82.8026 81.6277V75.6277ZM81.5813 76.1606C82.1572 75.6395 82.7365 75.6277 82.8026 75.6277V81.6277C83.5664 81.6277 84.6734 81.4543 85.6068 80.6098L81.5813 76.1606ZM81.1315 76.864C81.1818 76.6982 81.3307 76.3608 81.6944 76.0633L85.4937 80.7071C86.2319 80.1032 86.6532 79.3317 86.8737 78.6042L81.1315 76.864ZM81.4083 75.8695C81.2973 76.3215 81.2132 76.6156 81.1565 76.7854L86.8486 78.6828C86.9793 78.2909 87.1079 77.819 87.2352 77.3007L81.4083 75.8695ZM82.9554 76.166V72.5532H76.9554V76.166H82.9554ZM65.9195 73.3525L78.7624 78.9186L81.1484 73.4134L68.3054 67.8473L65.9195 73.3525ZM64.1124 67.5104V70.5999H70.1124V67.5104H64.1124ZM78.7624 59.1917L65.9195 64.7578L68.3054 70.263L81.1484 64.6969L78.7624 59.1917ZM82.9554 65.5827V61.9443H76.9554V65.5827H82.9554ZM72.0845 71.8292L81.0337 68.3822L78.8771 62.7832L69.9279 66.2301L72.0845 71.8292ZM81.0545 69.7617L72.1052 66.2382L69.9071 71.8211L78.8564 75.3446L81.0545 69.7617Z" fill="black" fill-opacity="0.2" mask="url(#path-1-outside-1_1296_6116)"/>
<path fill-rule="evenodd" clip-rule="evenodd" d="M74.5315 38.4721L54.8973 11L17 64.0258L54.8973 117.052L74.5663 89.5307H55.7667V38.4721H74.5315Z" fill="#909090"/>
</svg>
