<svg width="128" height="128" viewBox="0 0 128 128" fill="none" xmlns="http://www.w3.org/2000/svg">
<path d="M60 32H112.95V39.4008H60V32Z" fill="#909090"/>
<path fill-rule="evenodd" clip-rule="evenodd" d="M60 42.4008H112.95V77.3855H60V42.4008ZM91.1068 66.8814L103.95 61.2898V58.2258L91.1068 52.6852V56.2726L100.082 59.745L91.1068 63.2686V66.8814ZM89.294 52.5566L85.7194 67.2762C85.6003 67.7613 85.4939 68.1443 85.4003 68.4252C85.3151 68.706 85.179 68.9231 84.9917 69.0763C84.813 69.238 84.5492 69.3188 84.2002 69.3188C83.3321 69.3188 82.898 68.9443 82.898 68.1954C82.898 67.9996 82.9832 67.5102 83.1534 66.7272L86.7152 52.0076C86.9024 51.2246 87.0812 50.6884 87.2514 50.399C87.4216 50.1097 87.7535 49.965 88.2472 49.965C88.6727 49.965 88.9961 50.0671 89.2174 50.2714C89.4472 50.4756 89.5621 50.7565 89.5621 51.114C89.5621 51.3778 89.4727 51.8587 89.294 52.5566ZM81.3531 66.8571V63.2442L72.4038 59.7207L81.3531 56.2738V52.6354L68.5101 58.2015V61.291L81.3531 66.8571Z" fill="#909090"/>
<path d="M16 84.4424C16 109.192 36.8903 116.293 49.7244 117C44.0265 114.226 33.6784 105.669 32.5546 90.611C31.3795 74.8649 40.4864 62.1153 45.1867 57.7087C42.347 62.8008 38.959 75.0999 48.1246 83.5605C50.3465 85.3551 53.1154 86.6774 55.925 88.0191C62.7734 91.2896 69.8636 94.6756 69.8636 105.299C69.6798 110.261 66.4904 113.99 63.8909 116.035C76.8275 112.633 89.5092 101.695 89.7362 84.4424C89.7562 82.9202 89.7134 81.4389 89.6161 80H57V29H63.2828C57.8126 19.4996 46.7382 13.311 40.3829 11C45.8666 14.6232 53.8963 25.571 42.1455 40.377C38.1215 45.4472 34.3401 49.415 30.9703 52.9509C22.0395 62.3218 16 68.659 16 84.4424Z" fill="#909090"/>
<path d="M60 30.5C59.1716 30.5 58.5 31.1716 58.5 32V30.5H60ZM114.45 32C114.45 31.1716 113.778 30.5 112.95 30.5H63.2828C63.8184 30.5 64.3133 30.2144 64.5814 29.7508C64.8495 29.2871 64.85 28.7157 64.5827 28.2515C58.8607 18.3138 47.4059 11.9577 40.8955 9.59031C40.1809 9.33046 39.3849 9.64641 39.043 10.3256C38.7012 11.0048 38.9216 11.8323 39.556 12.2515C42.0499 13.8993 45.1524 17.2487 46.2695 21.8489C47.3665 26.3662 46.6092 32.3398 40.9706 39.4445C36.9934 44.4557 33.2548 48.3796 29.8844 51.9161L29.8026 52.0019C25.4007 56.6206 21.5443 60.667 18.8248 65.5637C16.056 70.5488 14.5 76.3375 14.5 84.4424C14.5 97.3143 19.9665 105.721 27.168 110.951C34.2977 116.128 43.0364 118.134 49.6419 118.498C50.3549 118.537 50.9968 118.068 51.1762 117.377C51.3557 116.686 51.0231 115.964 50.381 115.651C45.007 113.035 35.1231 104.872 34.0504 90.4993C33.281 80.1883 37.1126 71.1792 41.0558 65.1485C40.8183 66.4899 40.6709 67.9026 40.6538 69.3537C40.5936 74.4527 42.1489 80.0858 47.1072 84.6627C47.1314 84.6851 47.1564 84.7067 47.1821 84.7274C49.5417 86.6332 52.4444 88.0194 55.1919 89.3313L55.2786 89.3727C58.7503 91.0307 61.993 92.5953 64.411 94.9716C66.7416 97.2621 68.3573 100.369 68.3635 105.271C68.1922 109.594 65.3908 112.946 62.9633 114.856C62.4047 115.296 62.2313 116.067 62.5481 116.704C62.8649 117.34 63.5849 117.667 64.2724 117.486C77.6762 113.96 90.9979 102.563 91.2361 84.4622C91.2567 82.899 91.2127 81.3773 91.1127 79.8988C91.0854 79.4953 90.9003 79.1379 90.62 78.8855H112.95C113.778 78.8855 114.45 78.2139 114.45 77.3855V42.4008C114.45 41.5724 113.778 40.9008 112.95 40.9008C113.778 40.9008 114.45 40.2293 114.45 39.4008V32ZM58.9961 78.5H58.5V77.3855C58.5 77.8278 58.6915 78.2255 58.9961 78.5ZM58.5 39.4008C58.5 40.2293 59.1716 40.9008 60 40.9008C59.1716 40.9008 58.5 41.5724 58.5 42.4008V39.4008ZM98.8678 57.6671L92.6068 55.2446V54.966L98.8678 57.6671ZM101.071 58.6175L102.45 59.2124V60.3068L100.979 60.9474C101.353 60.6681 101.583 60.2237 101.582 59.7413C101.58 59.3026 101.388 58.8962 101.071 58.6175ZM99.6476 61.5269L92.6068 64.5924V64.2911L99.6476 61.5269ZM79.8531 64.2657V64.5722L72.1286 61.2244L79.8531 64.2657ZM70.9039 59.7151C70.9018 60.2553 71.1896 60.7482 71.646 61.0153L70.0101 60.3063V59.1862L71.452 58.5613C71.1127 58.84 70.9055 59.26 70.9039 59.7151ZM73.1397 57.8299L79.8531 54.9203V55.2441L73.1397 57.8299Z" stroke="black" stroke-opacity="0.2" stroke-width="3" stroke-linejoin="round"/>
<path fill-rule="evenodd" clip-rule="evenodd" d="M60 32H112.95V39.4008H60V32ZM60 42.4008H112.95V77.3855H60V42.4008ZM91.1068 66.8814L103.95 61.2898V58.2258L91.1068 52.6852V56.2726L100.082 59.745L91.1068 63.2686V66.8814ZM89.294 52.5566L85.7194 67.2762C85.6003 67.7613 85.4939 68.1443 85.4003 68.4252C85.3151 68.706 85.179 68.9231 84.9917 69.0763C84.813 69.238 84.5492 69.3188 84.2002 69.3188C83.3321 69.3188 82.898 68.9443 82.898 68.1954C82.898 67.9996 82.9832 67.5102 83.1534 66.7272L86.7152 52.0076C86.9024 51.2246 87.0812 50.6884 87.2514 50.399C87.4216 50.1097 87.7535 49.965 88.2472 49.965C88.6727 49.965 88.9961 50.0671 89.2174 50.2714C89.4472 50.4756 89.5621 50.7565 89.5621 51.114C89.5621 51.3778 89.4727 51.8587 89.294 52.5566ZM81.3531 66.8571V63.2442L72.4038 59.7207L81.3531 56.2738V52.6354L68.5101 58.2015V61.291L81.3531 66.8571Z" fill="#D9D9D9"/>
<path fill-rule="evenodd" clip-rule="evenodd" d="M16 84.4424C16 107.884 34.7418 115.493 47.6277 116.833C41.799 113.203 33.5512 104.963 32.5548 91.6112C31.3797 75.8651 40.4866 63.1155 45.1869 58.709C42.3472 63.801 38.9592 76.1002 48.1248 84.5607C50.3468 86.3554 53.1156 87.6777 55.9252 89.0194C62.7736 92.2899 69.8638 95.6758 69.8638 106.3C69.7179 110.238 67.6783 113.399 65.5432 115.559C77.8863 111.688 89.5189 100.959 89.7362 84.4424C89.7562 82.9202 89.7134 81.4389 89.6161 80H57V29H63.2828C57.8126 19.4996 46.7382 13.311 40.3829 11C45.8666 14.6232 53.8963 25.571 42.1455 40.377C38.1215 45.4472 34.3401 49.415 30.9703 52.9509L30.9702 52.9509C22.0395 62.3219 16 68.659 16 84.4424Z" fill="#909090"/>
</svg>
